PathFileType	4	(X/Y/Z)	22_2_84_p0_0-272_filt_butterworth.trc
DataRate	CameraRate	NumFrames	NumMarkers	Units	OrigDataRate	OrigDataStartFrame	OrigNumFrames
60.0	60.0	6	27	m	60.0	68	272
Frame#	Time	RHip			RKnee			RAnkle			RBigToe			RSmallToe			RHeel			LHip			LKnee			LAnkle			LBigToe			LSmallToe			LHeel			Neck			Head			Nose			RShoulder			RElbow			RWrist			RThumb			RIndex			RPinky			LShoulder			LElbow			LWrist			LThumb			LIndex			LPinky			
		X1	Y1	Z1	X2	Y2	Z2	X3	Y3	Z3	X4	Y4	Z4	X5	Y5	Z5	X6	Y6	Z6	X7	Y7	Z7	X8	Y8	Z8	X9	Y9	Z9	X10	Y10	Z10	X11	Y11	Z11	X12	Y12	Z12	X13	Y13	Z13	X14	Y14	Z14	X15	Y15	Z15	X16	Y16	Z16	X17	Y17	Z17	X18	Y18	Z18	X19	Y19	Z19	X20	Y20	Z20	X21	Y21	Z21	X22	Y22	Z22	X23	Y23	Z23	X24	Y24	Z24	X25	Y25	Z25	X26	Y26	Z26	X27	Y27	Z27	
68	1.1333333333333333	0.25663109577439214	0.6094216778954243	0.9172875063061104	0.27162520049193356	0.7132441418178842	1.3477954999580524	0.2810886261790569	0.9170319573779289	1.8256583816341636	0.2185500683330109	0.635604080978985	1.8628479852474857	0.2965410139711159	0.6803264212271856	1.8603927222714152	0.2917695340577323	0.9997802203573054	1.8710871957800268	0.021655464692716824	0.6174831932238191	0.9328976480977378	0.058565588527538806	0.7526468743712148	1.3887650901538198	0.08815031432129772	0.8870588290116291	1.8198085941360538	0.09590799332153598	0.667943075419449	1.8603829687536004	0.05272094920458424	0.7286618725968033	1.8739177287449698	0.11390399394513781	0.9695457831236072	1.8777465538980715	0.11260718409167511	0.48539237814949004	0.38240617208512684	0.11639809362776839	0.3846111091800237	0.15054926395617332	0.09160589054308067	0.3158552673858408	0.2975962477803597	0.27255276328342537	0.4655241472208474	0.4565874343069941	0.35626602278813513	0.5362058360216052	0.7118463799640246	0.2214328135651401	0.3342104766577407	0.7250834336299472	0.12193285158391273	0.25563122853526243	0.6912892397764857	0.12770649822842317	0.21887429542544093	0.6910443147347388	0.1514527317900122	0.25802079496464614	0.7402233723929517	-0.052277844652424486	0.4664677452954676	0.4549680417385227	-0.10428620626731405	0.5992957254175908	0.6955483453784035	-0.13773219528219408	0.573693611327006	0.9667647696535604	-0.12257159959962789	0.5813022936780105	1.081820772333638	-0.14584797707411304	0.5836313875418315	1.1051591678614847	-0.15447921960376507	0.6244550716512456	1.1079266083619492
69	1.15	0.25825583417672693	0.6049205022877554	0.9176546407378402	0.2715679644146385	0.7134462337319448	1.3478180839298959	0.2810738372603271	0.9187463746612133	1.8261571491900912	0.21833872726951997	0.6353356327799682	1.8627553564555388	0.2966370040416547	0.6804701700042705	1.8604629291882446	0.29058704191040674	0.9997692417969215	1.8708037980369339	0.022851952373480092	0.617462819961314	0.9327446290762945	0.0585287117665643	0.7526225007878663	1.3887860183837861	0.08809864499305661	0.8870189186554525	1.8198160399145684	0.09582080219940688	0.6679108824072085	1.8602659623625926	0.05345775254943341	0.7302541699694685	1.8744995961843758	0.11369733804276576	0.9719120639535676	1.8784720868089373	0.11257553790487808	0.48536544267699566	0.38243512555154574	0.11656317833821592	0.3831197533254175	0.1505992132448576	0.09255243066633256	0.3158691601089482	0.29792963710364123	0.27319230113554005	0.4655621416239348	0.4564328405389837	0.35764054478048846	0.5200688261422302	0.7132873052879084	0.21452344028844897	0.3504583500366555	0.7246006822526226	0.1133993959728532	0.267757311197356	0.6844242631375367	0.11829487441871281	0.22404499803489786	0.6822407488498499	0.14879889441531735	0.2671156113880044	0.7329871012577861	-0.0522427785478673	0.4662353889435155	0.45411256160144403	-0.10437714022131331	0.5988139517279305	0.6935806523486493	-0.1377531386174453	0.573722038889744	0.966838929252696	-0.12074014514245579	0.5807881324936174	1.0814041041146463	-0.14382698530431795	0.5796973135050367	1.1056620959735008	-0.15320208939522004	0.6180070762377322	1.1051629220771422
70	1.1666666666666667	0.25978881788167796	0.6024874924268393	0.918197579221321	0.2712983946365495	0.7134310092675931	1.3477995227372916	0.28118932065016183	0.9229192429713271	1.8274157738555354	0.21827477781173432	0.635635514165965	1.862823726914891	0.2965599932023848	0.6826031245194842	1.8612408850380497	0.2901364387424755	0.9997347814720601	1.8710715050079667	0.024348907656719616	0.6174959917392564	0.9324656778453084	0.05847015286815267	0.7524869382157677	1.3887047159940855	0.08808902464177669	0.887129861987062	1.8198490133461978	0.09569256473412055	0.668087231311734	1.8602537798525318	0.05376176358001577	0.7342580026183866	1.8759564090688672	0.11319132526584544	0.9777351240761615	1.8803026426438803	0.11253626541850671	0.4853730050999334	0.3824959071847525	0.1170940630117393	0.3798967124056118	0.1518663315661296	0.09303593974650132	0.3158665695966567	0.29870515328043723	0.27434793184060596	0.4655700887945294	0.45634219830658196	0.3590497857097596	0.5041558565598621	0.715232753351808	0.2057999407353677	0.36776596627403496	0.7247515221772978	0.10455517782233938	0.2873134783639675	0.6768618359236125	0.10992568991632705	0.23208206996839265	0.6759489020937701	0.14475901585089385	0.2763364769848761	0.7263975717352715	-0.05134835688863218	0.46599741556766794	0.45278531752021123	-0.10422467927324675	0.5972459379480503	0.692182124466986	-0.13767783292254593	0.5724788260316124	0.9670019976619829	-0.11826092458841062	0.5791872330257639	1.0807483127126118	-0.1411824559289967	0.5767276235995131	1.1061032031620046	-0.15089941134677215	0.6095838448336496	1.1034865851734985
71	1.1833333333333331	0.260605128945369	0.6014735440699501	0.9187081260594875	0.27084226561820796	0.7130789245962456	1.3477168013587821	0.281560593732266	0.9283459673416734	1.8290722627409721	0.2184523678331633	0.6365475999558179	1.863184264936561	0.2963610125835362	0.6878526509016955	1.8630749723039772	0.29028279312499716	0.9997906689396553	1.8720831847147261	0.025380075080717716	0.6175850897791901	0.9323065121323801	0.05835583562149157	0.7521704070427497	1.3883605183243608	0.0882285972710138	0.8876244723278333	1.8199166656568726	0.0957913450808454	0.6683521246662232	1.8607794611840758	0.053809674716549225	0.7397846498974502	1.8779220827950742	0.11244993583007001	0.9852535596068799	1.8826531873317038	0.11252697160366205	0.4854934793658127	0.3824739619102694	0.1178986450554471	0.3760375437951179	0.15437850284879434	0.09349737905300085	0.3158748720226859	0.2997380783864827	0.27511068576780795	0.4653706842042139	0.45634110021104635	0.36011379012518385	0.4946390281313523	0.7167389787501023	0.19788565671146427	0.3805110074210068	0.7249839912824154	0.09601303434548615	0.31229255837147085	0.6692265508899903	0.10314752416439098	0.24244608984489058	0.6718211725214698	0.13993565168295558	0.2830404907973501	0.7213681393481801	-0.0492457125395052	0.4658281028721571	0.45141868524302636	-0.10363471550961459	0.5939509635848315	0.6920142477884028	-0.13729116032299235	0.5692874411516073	0.9669398889861337	-0.1156176826552001	0.5762296871708502	1.080038354006816	-0.13888995639716362	0.5754313161862696	1.1060695786308135	-0.14798472119452236	0.6029263088141797	1.103637682900022
72	1.2	0.26068650254095194	0.6011583544419488	0.9189798510847424	0.27034735320156933	0.7126353779163076	1.3476351096390091	0.2822009793469038	0.9324772604179266	1.830342990343837	0.2186956110989911	0.637564715887398	1.863841101044913	0.2961722499243662	0.6950990119597751	1.8655459912240473	0.2906460196359823	0.9998709676021563	1.8734541452652373	0.025703372066896726	0.6177813219026971	0.9328097421549352	0.05822027860753107	0.7517147801091967	1.3877323528582077	0.08862224666371955	0.8885473607523099	1.8199892932357133	0.09652441555204971	0.6686696210389408	1.8622137534494956	0.0538338203246175	0.7441942857583168	1.8794830316064757	0.111677021816377	0.9906208178173413	1.8843251227163687	0.11259615525529296	0.48572257357567034	0.3821102409089573	0.11865537024037473	0.37350746622271846	0.1572921470007329	0.09440666148238497	0.31583380046443355	0.30049287626460686	0.2741671572305643	0.4646223597566808	0.4564092829949643	0.3609147602819264	0.49209299400567413	0.7173540983148262	0.19265923521464529	0.38606207937909026	0.7247840919712975	0.08858752136614323	0.334778694747379	0.6626475899967468	0.09678950157421606	0.25647803527028346	0.6686756407307569	0.13654326723136365	0.28913296737970934	0.7173413553075311	-0.04687588416194239	0.4657184390392678	0.4504073426369972	-0.10258877053331808	0.5895484303397664	0.6924314482587696	-0.13633451115427042	0.5649935157501385	0.9658932156765105	-0.11338425114337197	0.5724934588278597	1.079406614682569	-0.13732468491689512	0.5750468332645005	1.1050939468963934	-0.145047795336176	0.5990755513050022	1.1051647896444283
73	1.2166666666666666	0.2605213694574729	0.601311390344378	0.91912033895194	0.26999856312995635	0.7124081086958529	1.3476498487737947	0.28316341801637646	0.9342098574376154	1.8308890856497144	0.2188206347110243	0.6382567201930116	1.8643061301838337	0.29607993604406063	0.7011014078761567	1.867544110371038	0.29092313755254573	0.9997935598170675	1.8744938090871255	0.025689691697860048	0.6180791354688435	0.9343670555321058	0.05820165619292554	0.7512610794803801	1.386976811564576	0.08918269280656183	0.8894041915167774	1.819927695261633	0.09803885078627736	0.6693367612078788	1.8642394334874735	0.05380650917926656	0.7460871476611144	1.8801680468837307	0.11114017107464443	0.9924132097901335	1.8850058707972874	0.11272404063651607	0.4858916559452871	0.38122822310418514	0.11911619997180509	0.37285607661779174	0.15949913724975212	0.09578253397420167	0.31565628696388215	0.30079508778379993	0.27137397567934635	0.4626743431852161	0.4564711213922606	0.36164669515847203	0.49388480995369355	0.7173268083061521	0.19001122939530218	0.3864686228647096	0.7239883069760389	0.08301788693740196	0.34873820529656874	0.6573567808405641	0.08918072231648183	0.2753277314797975	0.665860738322074	0.13572278183076314	0.2997715414612744	0.7134369976136812	-0.04587650698255054	0.46561085955240444	0.4499345474044871	-0.10141795433395678	0.5856632824600538	0.6920383314037006	-0.1348163314243204	0.561542507999902	0.9631836494393783	-0.11131158500738066	0.5677072465648021	1.0783421257434571	-0.13644787178251006	0.5746389489449101	1.1028055043957137	-0.14253289482684015	0.5956162733664812	1.1059730921934747
